Format                           : Matroska
File size                        : 1.64 GiB
Duration                         : 1h 36mn
Overall bit rate                 : 2421 Kbps
Movie name                       : Legend of the Guardians - The Owls of Ga'Hoole 1080P BRRIP Dual Audio[5.1Hindi+English] ~ Ashish7(wall.e)

Video
ID                               : 1
Format                           : AVC
Format/Info                      : Advanced Video Codec
Bit rate                         : 1877 Kbps
Width                            : 1920 pixels
Height                           : 816 pixels
Display aspect ratio             : 2.35:1
Frame rate                       : 23.976 fps
Color space                      : YUV
Chroma subsampling               : 4:2:0
Stream size                      : 1.27 GiB (78%)
Title                            : 1080P BRRIP ~ Ashish7(wall.e)

Audio #1
ID                               : 2
Format                           : AC-3
Format/Info                      : Audio Coding 3
Bit rate                         : 448 Kbps
Channel(s)                       : 6 channels
Channel positions                : Front: L C R, Side: L R, LFE
Sampling rate                    : 48.0 KHz
Bit depth                        : 16 bits
Stream size                      : 310 MiB (19%)
Title                            : 5.1Hindi ~ Ashish7(wall.e)

Audio #2
ID                               : 3
Format                           : MPEG Audio
Bit rate                         : 48.0 Kbps
Channel(s)                       : 2 channels
Title                            : English ~ Ashish7(wall.e)